<svg width="20.000000" height="20.000000" viewBox="0 0 20 20" fill="none" xmlns="http://www.w3.org/2000/svg" xmlns:xlink="http://www.w3.org/1999/xlink">
	<desc>
			Created with Pixso.
	</desc>
	<defs>
		<clipPath id="clip22_1407">
			<rect id="svg" width="20.000000" height="20.000000" fill="white" fill-opacity="0"/>
		</clipPath>
	</defs>
	<g clip-path="url(#clip22_1407)">
		<path id="Vector" d="M11.5 19.86L11.5 12.94L13.8 12.94L14.25 10.05L11.5 10.05L11.5 8.2C11.5 7.41 11.88 6.64 13.11 6.64L14.36 6.64L14.36 4.2C13.61 4.07 12.87 4.01 12.14 4.01C9.88 4.01 8.39 5.39 8.39 7.88L8.39 10.05L5.88 10.05L5.88 12.94L8.39 12.94L8.39 19.86C3.66 19.13 0.02 15.01 0.02 10.05C0.02 4.58 4.47 0.13 9.95 0.13C15.42 0.13 19.88 4.58 19.88 10.05C19.88 15.01 16.25 19.13 11.5 19.86Z" fill="#4676ED" fill-opacity="1.000000" fill-rule="nonzero"/>
		<path id="Vector" d="M11.5 12.94L11.5 19.86C11 19.94 10.48 19.98 9.95 19.98C9.42 19.98 8.9 19.94 8.39 19.86L8.39 12.94L5.88 12.94L5.88 10.05L8.39 10.05L8.39 7.88C8.39 5.39 9.88 4.01 12.14 4.01C12.87 4.01 13.61 4.07 14.36 4.2L14.36 6.64L13.11 6.64C11.88 6.64 11.5 7.41 11.5 8.2L11.5 10.05L14.25 10.05L13.8 12.94L11.5 12.94Z" fill="#FFFFFF" fill-opacity="1.000000" fill-rule="nonzero"/>
	</g>
</svg>
