<svg width="113.455414" height="24.312988" viewBox="0 0 113.455 24.313" fill="none" xmlns="http://www.w3.org/2000/svg" xmlns:xlink="http://www.w3.org/1999/xlink">
	<desc>
			Created with Pixso.
	</desc>
	<defs/>
	<path id="NEXTON" d="M77.17 23.61Q79.16 24.31 81.39 24.31Q83.58 24.31 85.54 23.63Q86.56 23.28 87.51 22.75Q88.88 21.97 89.97 20.91Q91.09 19.81 91.91 18.41Q92.21 17.88 92.46 17.33Q92.9 16.37 93.16 15.32L93.16 24.07L97.91 24.07L97.91 7.78L108.69 24.07L113.45 24.07L113.45 0.3L108.69 0.3L108.69 16.62L97.91 0.3L93.16 0.3L93.16 8.97Q92.93 8.06 92.56 7.21Q92.28 6.53 91.91 5.9Q91.06 4.43 89.88 3.31Q88.83 2.3 87.52 1.56Q86.71 1.1 85.84 0.78Q83.76 0 81.39 0Q79.18 0 77.21 0.68Q76.21 1.03 75.26 1.56Q73.97 2.29 72.92 3.28Q71.72 4.41 70.85 5.9Q70.45 6.57 70.15 7.28Q69.21 9.51 69.21 12.13Q69.21 14.93 70.25 17.25Q70.52 17.85 70.85 18.41Q71.72 19.88 72.9 21.01Q73.96 22.01 75.26 22.75Q76.19 23.27 77.17 23.61ZM15.53 24.07L20.29 24.07L20.29 0.3L15.53 0.3L15.53 16.62L4.75 0.3L0 0.3L0 24.07L4.75 24.07L4.75 7.78L15.53 24.07ZM25.83 10.13L25.83 4.18L34.85 4.18L34.85 1.34L41.78 12.1L34.85 23.19L34.85 20.19L25.83 20.19L25.83 13.9L33.83 13.9L33.83 10.13L25.83 10.13ZM34.85 24.07L21.08 24.07L21.08 0.3L34.85 0.3L34.85 0.34L39.67 0.34L44.81 8.29L49.43 0.34L70.81 0.34L70.81 4.18L64.49 4.18L64.49 24.07L59.73 24.07L59.73 4.18L53.41 4.18L53.41 2.57L47.36 12.27L54.93 24.07L49.46 24.07L44.33 16.07L39.67 24.07L34.85 24.07ZM84.87 19.25Q83.34 20.06 81.39 20.06Q79.49 20.06 77.98 19.29Q77.78 19.2 77.6 19.09Q77.06 18.77 76.59 18.36Q75.64 17.53 75.02 16.31Q74.11 14.51 74.11 12.13Q74.11 9.76 75.02 7.97Q75.63 6.79 76.56 5.97Q77.04 5.56 77.6 5.23Q77.74 5.15 77.89 5.07Q79.44 4.28 81.39 4.28Q83.4 4.28 84.95 5.12Q85.06 5.17 85.16 5.23Q85.68 5.54 86.13 5.93Q87.09 6.76 87.71 7.97Q88.63 9.76 88.63 12.13Q88.63 14.51 87.71 16.31Q87.08 17.56 86.1 18.41Q85.66 18.79 85.16 19.09Q85.02 19.17 84.87 19.25Z" fill="#FFFFFF" fill-opacity="1.000000" fill-rule="evenodd"/>
</svg>
