<svg width="119.000000" height="46.000000" viewBox="0 0 119 46" fill="none" xmlns="http://www.w3.org/2000/svg" xmlns:xlink="http://www.w3.org/1999/xlink">
	<desc>
			Created with Pixso.
	</desc>
	<defs>
		<clipPath id="clip134_29044">
			<rect id="logo" width="119.000000" height="46.000000" fill="white" fill-opacity="0"/>
		</clipPath>
	</defs>
	<g clip-path="url(#clip134_29044)">
		<path id="NEXTON" d="M79.52 30.54Q81.51 31.24 83.74 31.24Q85.93 31.24 87.89 30.56Q88.91 30.21 89.86 29.68Q91.23 28.9 92.32 27.84Q93.44 26.74 94.26 25.33Q94.56 24.81 94.81 24.26Q95.25 23.29 95.5 22.24L95.5 31L100.26 31L100.26 14.71L111.04 31L115.8 31L115.8 7.23L111.04 7.23L111.04 23.55L100.26 7.23L95.5 7.23L95.5 15.9Q95.28 14.99 94.91 14.13Q94.63 13.46 94.26 12.82Q93.41 11.36 92.23 10.23Q91.18 9.23 89.87 8.49Q89.06 8.03 88.19 7.7Q86.11 6.92 83.74 6.92Q81.53 6.92 79.56 7.61Q78.56 7.96 77.61 8.49Q76.32 9.22 75.27 10.21Q74.07 11.34 73.2 12.82Q72.8 13.5 72.5 14.21Q71.56 16.44 71.56 19.06Q71.56 21.85 72.6 24.18Q72.87 24.77 73.2 25.33Q74.06 26.8 75.25 27.94Q76.31 28.94 77.61 29.68Q78.54 30.19 79.52 30.54ZM17.87 31L22.64 31L22.64 7.23L17.87 7.23L17.87 23.55L7.1 7.23L2.34 7.23L2.34 31L7.1 31L7.1 14.71L17.87 31ZM28.18 17.06L28.18 11.11L37.2 11.11L37.2 8.27L44.13 19.03L37.2 30.12L37.2 27.12L28.18 27.12L28.18 20.83L36.17 20.83L36.17 17.06L28.18 17.06ZM37.2 31L23.42 31L23.42 7.23L37.2 7.23L37.2 7.26L42.02 7.26L47.16 15.22L51.78 7.26L73.16 7.26L73.16 11.11L66.84 11.11L66.84 31L62.08 31L62.08 11.11L55.75 11.11L55.75 9.5L49.7 19.2L57.28 31L51.81 31L46.67 23L42.02 31L37.2 31ZM87.22 26.18Q85.69 26.99 83.74 26.99Q81.84 26.99 80.33 26.22Q80.13 26.12 79.95 26.01Q79.4 25.7 78.94 25.29Q77.99 24.45 77.37 23.24Q76.46 21.44 76.46 19.06Q76.46 16.68 77.37 14.9Q77.98 13.72 78.91 12.9Q79.39 12.48 79.95 12.16Q80.09 12.08 80.24 12Q81.79 11.21 83.74 11.21Q85.75 11.21 87.3 12.04Q87.41 12.1 87.51 12.16Q88.03 12.47 88.48 12.86Q89.44 13.69 90.06 14.9Q90.98 16.68 90.98 19.06Q90.98 21.44 90.06 23.24Q89.43 24.49 88.45 25.33Q88.01 25.71 87.51 26.01Q87.37 26.1 87.22 26.18Z" fill="#FFFFFF" fill-opacity="1.000000" fill-rule="evenodd"/>
		<path id="eCommerce" d="M49.04 42.49Q49.04 42.56 49.03 42.64L42.9 42.64Q42.96 43.55 43.42 44.14Q43.54 44.28 43.67 44.41Q43.95 44.65 44.27 44.8Q44.77 45.04 45.39 45.04Q46.22 45.04 46.77 44.66Q47.03 44.47 47.22 44.23Q47.43 43.97 47.55 43.63L48.92 43.63Q48.77 44.16 48.48 44.6Q48.17 45.07 47.69 45.43Q47.6 45.49 47.51 45.55Q46.63 46.12 45.39 46.12Q44.46 46.12 43.69 45.76Q43.56 45.7 43.44 45.63Q43.11 45.45 42.84 45.2Q42.39 44.8 42.09 44.24Q41.6 43.34 41.6 42.15Q41.6 40.95 42.07 40.06Q42.36 39.52 42.78 39.13Q43.06 38.87 43.41 38.68Q43.43 38.67 43.46 38.65Q44.3 38.2 45.39 38.2Q46.44 38.2 47.26 38.64Q47.29 38.66 47.32 38.67Q47.79 38.94 48.14 39.31Q48.41 39.61 48.62 39.98Q48.66 40.05 48.69 40.13Q48.81 40.37 48.89 40.64Q48.96 39.74 49.31 38.96Q49.4 38.75 49.52 38.54Q49.89 37.88 50.42 37.39Q50.81 37.03 51.28 36.76Q51.61 36.56 51.97 36.43Q52.8 36.11 53.75 36.11Q55.1 36.11 56.16 36.66Q56.35 36.76 56.53 36.88Q56.93 37.14 57.26 37.47Q57.91 38.12 58.27 39.06L56.74 39.06Q56.45 38.42 55.96 37.99Q55.78 37.83 55.58 37.71Q54.81 37.23 53.75 37.23Q52.94 37.23 52.26 37.53Q52.08 37.61 51.92 37.71Q51.64 37.87 51.4 38.08Q50.95 38.48 50.64 39.06Q50.18 39.93 50.18 41.11Q50.18 42.27 50.64 43.14Q50.94 43.72 51.4 44.12Q51.64 44.33 51.92 44.5Q52.08 44.6 52.26 44.68Q52.94 44.97 53.75 44.97Q54.81 44.97 55.58 44.5Q55.77 44.38 55.95 44.23Q56.44 43.81 56.74 43.15L58.27 43.15Q57.92 44.06 57.29 44.7Q56.95 45.05 56.53 45.32Q56.37 45.42 56.2 45.51Q55.13 46.08 53.75 46.08Q52.77 46.08 51.92 45.75Q51.59 45.62 51.28 45.44Q50.8 45.17 50.4 44.8Q49.89 44.32 49.52 43.67Q49.42 43.49 49.33 43.3Q49.15 42.91 49.04 42.49ZM77.14 38.55Q76.44 38.18 75.55 38.18Q74.94 38.18 74.4 38.38Q74.14 38.48 73.89 38.63Q73.53 38.85 73.27 39.15Q73 39.47 72.83 39.89Q72.59 39.34 72.2 38.97Q71.98 38.77 71.72 38.62Q71.65 38.57 71.57 38.53Q70.89 38.18 70.02 38.18Q69.36 38.18 68.8 38.42Q68.7 38.46 68.61 38.51Q68.29 38.67 68.03 38.9Q67.78 39.13 67.59 39.43L67.59 38.32L66.32 38.32L66.32 46L67.59 46L67.59 41.77Q67.59 40.56 68.18 39.93Q68.36 39.74 68.56 39.61Q69.06 39.29 69.76 39.29Q70.47 39.29 70.97 39.62Q71.15 39.73 71.3 39.9Q71.86 40.51 71.86 41.65L71.86 46L73.12 46L73.12 41.77Q73.12 40.56 73.71 39.93Q73.89 39.74 74.1 39.61Q74.59 39.29 75.3 39.29Q76 39.29 76.5 39.62Q76.68 39.73 76.83 39.9Q77.39 40.51 77.39 41.65L77.39 46L78.66 46L78.66 41.47Q78.66 40.41 78.25 39.67Q77.97 39.15 77.54 38.82Q77.36 38.67 77.14 38.55L77.14 38.55ZM90.16 38.55Q89.46 38.18 88.57 38.18Q87.96 38.18 87.42 38.38Q87.16 38.48 86.91 38.63Q86.55 38.85 86.29 39.15Q86.02 39.47 85.85 39.89Q85.61 39.34 85.22 38.97Q85 38.77 84.74 38.62Q84.67 38.57 84.59 38.53Q83.91 38.18 83.04 38.18Q82.38 38.18 81.82 38.42Q81.72 38.46 81.63 38.51Q81.31 38.67 81.05 38.9Q80.8 39.13 80.61 39.43L80.61 38.32L79.34 38.32L79.34 46L80.61 46L80.61 41.77Q80.61 40.56 81.2 39.93Q81.38 39.74 81.58 39.61Q82.08 39.29 82.79 39.29Q83.49 39.29 83.99 39.62Q84.17 39.73 84.32 39.9Q84.88 40.51 84.88 41.65L84.88 46L86.14 46L86.14 41.77Q86.14 40.56 86.73 39.93Q86.91 39.74 87.12 39.61Q87.61 39.29 88.32 39.29Q89.02 39.29 89.52 39.62Q89.7 39.73 89.85 39.9Q90.41 40.51 90.41 41.65L90.41 46L91.68 46L91.68 41.47Q91.68 40.41 91.27 39.67Q90.99 39.15 90.56 38.82Q90.38 38.67 90.16 38.55L90.16 38.55ZM101.41 38.9Q101.11 39.18 100.92 39.57L100.92 38.32L99.64 38.32L99.64 46L100.92 46L100.92 41.82Q100.92 40.57 101.54 39.99Q102.07 39.5 103.06 39.5L103.39 39.5L103.39 38.18Q102.5 38.18 101.87 38.55Q101.61 38.7 101.41 38.9ZM60.56 45.83Q61.27 46.12 62.11 46.12Q62.96 46.12 63.69 45.82Q63.9 45.74 64.1 45.63Q64.48 45.42 64.8 45.13Q65.22 44.75 65.51 44.24Q65.54 44.19 65.56 44.15Q66.04 43.28 66.04 42.15Q66.04 40.95 65.53 40.06Q65.23 39.54 64.81 39.15Q64.5 38.88 64.14 38.68Q63.98 38.6 63.82 38.53Q63.06 38.2 62.16 38.2Q61.25 38.2 60.48 38.54Q60.33 38.6 60.19 38.68Q59.85 38.87 59.57 39.11Q59.11 39.51 58.79 40.07Q58.77 40.1 58.76 40.14Q58.28 41.02 58.28 42.15Q58.28 43.34 58.78 44.24Q59.07 44.77 59.5 45.16Q59.79 45.43 60.15 45.63Q60.35 45.74 60.56 45.83ZM99.32 42.64Q99.36 42.23 99.36 41.87Q99.36 40.9 98.98 40.13Q98.94 40.05 98.91 39.98Q98.7 39.61 98.42 39.31Q98.08 38.94 97.61 38.67Q97.58 38.66 97.55 38.64Q96.73 38.2 95.68 38.2Q94.59 38.2 93.75 38.65Q93.72 38.67 93.7 38.68Q93.35 38.87 93.07 39.13Q92.65 39.52 92.36 40.06Q91.88 40.95 91.88 42.15Q91.88 43.34 92.37 44.24Q92.68 44.8 93.12 45.2Q93.4 45.45 93.73 45.63Q93.85 45.7 93.98 45.76Q94.74 46.12 95.68 46.12Q96.92 46.12 97.8 45.55Q97.89 45.49 97.98 45.43Q98.45 45.07 98.77 44.6Q99.06 44.16 99.21 43.63L97.84 43.63Q97.72 43.97 97.51 44.23Q97.32 44.47 97.06 44.66Q96.51 45.04 95.68 45.04Q95.06 45.04 94.56 44.8Q94.24 44.65 93.96 44.41Q93.82 44.28 93.71 44.14Q93.24 43.55 93.19 42.64L99.32 42.64ZM103.46 40.06Q102.99 40.95 102.99 42.15Q102.99 43.35 103.46 44.25Q103.76 44.81 104.21 45.21Q104.47 45.45 104.78 45.63Q104.87 45.68 104.96 45.73Q105.74 46.12 106.73 46.12Q107.97 46.12 108.84 45.55Q108.94 45.49 109.03 45.41Q109.41 45.13 109.68 44.77Q110.08 44.23 110.27 43.53L108.9 43.53Q108.74 44.06 108.4 44.41Q108.28 44.54 108.12 44.65Q107.57 45.04 106.73 45.04Q106.05 45.04 105.54 44.76Q105.22 44.58 104.96 44.29Q104.29 43.53 104.29 42.15Q104.29 40.77 104.96 40.02Q105.21 39.74 105.53 39.57Q106.04 39.28 106.73 39.28Q107.53 39.28 108.09 39.65Q108.11 39.67 108.13 39.68Q108.36 39.84 108.52 40.05Q108.78 40.36 108.9 40.79L110.27 40.79Q110.09 41.41 110.09 42.15Q110.09 43.34 110.57 44.24Q110.88 44.8 111.32 45.2Q111.6 45.45 111.93 45.63Q112.05 45.7 112.18 45.76Q112.94 46.12 113.88 46.12Q115.12 46.12 116 45.55Q116.09 45.49 116.18 45.43Q116.65 45.07 116.97 44.6Q117.26 44.16 117.41 43.63L116.04 43.63Q115.92 43.97 115.71 44.23Q115.52 44.47 115.26 44.66Q114.71 45.04 113.88 45.04Q113.26 45.04 112.76 44.8Q112.44 44.65 112.16 44.41Q112.02 44.28 111.91 44.14Q111.44 43.55 111.39 42.64L117.52 42.64Q117.56 42.23 117.56 41.87Q117.56 40.9 117.18 40.13Q117.14 40.05 117.11 39.98Q116.9 39.61 116.62 39.31Q116.28 38.94 115.81 38.67Q115.78 38.66 115.75 38.64Q114.93 38.2 113.88 38.2Q112.79 38.2 111.95 38.65Q111.92 38.67 111.9 38.68Q111.55 38.87 111.27 39.13Q110.85 39.52 110.56 40.06Q110.38 40.4 110.27 40.78Q110.06 39.95 109.57 39.36Q109.34 39.1 109.05 38.89Q109.03 38.87 109.01 38.85Q108.1 38.2 106.73 38.2Q105.74 38.2 104.96 38.59Q104.87 38.64 104.78 38.69Q104.46 38.88 104.19 39.12Q103.76 39.52 103.46 40.06ZM47.43 40.35Q47.76 40.87 47.76 41.6L42.91 41.6Q42.99 40.69 43.47 40.12Q43.57 40 43.69 39.89Q43.96 39.65 44.27 39.5Q44.75 39.28 45.34 39.28Q45.93 39.28 46.43 39.49Q46.49 39.52 46.56 39.55Q46.84 39.69 47.06 39.89Q47.28 40.09 47.43 40.35ZM97.72 40.35Q98.04 40.87 98.04 41.6L93.2 41.6Q93.28 40.69 93.76 40.12Q93.86 40 93.98 39.89Q94.25 39.65 94.56 39.5Q95.04 39.28 95.62 39.28Q96.21 39.28 96.72 39.49Q96.78 39.52 96.85 39.55Q97.13 39.69 97.35 39.89Q97.56 40.09 97.72 40.35ZM115.92 40.35Q116.24 40.87 116.24 41.6L111.4 41.6Q111.48 40.69 111.96 40.12Q112.06 40 112.18 39.89Q112.45 39.65 112.76 39.5Q113.24 39.28 113.82 39.28Q114.42 39.28 114.92 39.49Q114.98 39.52 115.05 39.55Q115.33 39.69 115.55 39.89Q115.76 40.09 115.92 40.35ZM62.81 44.91Q62.47 45 62.11 45Q61.64 45 61.23 44.86Q61.03 44.79 60.85 44.69Q60.75 44.63 60.65 44.56Q60.21 44.26 59.93 43.73Q59.59 43.08 59.59 42.15Q59.59 41.22 59.94 40.58Q60.23 40.05 60.67 39.74Q60.77 39.67 60.87 39.62Q61.02 39.54 61.18 39.48Q61.63 39.3 62.15 39.3Q62.56 39.3 62.94 39.42Q63.19 39.49 63.42 39.62Q63.53 39.67 63.62 39.74Q64.07 40.05 64.37 40.58Q64.74 41.22 64.74 42.15Q64.74 43.07 64.37 43.72Q64.08 44.21 63.66 44.51Q63.53 44.6 63.39 44.68Q63.11 44.83 62.81 44.91Z" fill="#FFFFFF" fill-opacity="1.000000" fill-rule="evenodd"/>
	</g>
</svg>
