<svg width="56.000000" height="32.000000" viewBox="0 0 56 32" fill="none" xmlns="http://www.w3.org/2000/svg" xmlns:xlink="http://www.w3.org/1999/xlink">
	<desc>
			Created with Pixso.
	</desc>
	<defs>
		<clipPath id="clip182_6142">
			<rect id="paypal" rx="-0.500000" width="55.000000" height="31.000000" transform="translate(0.500000 0.500000)" fill="white" fill-opacity="0"/>
		</clipPath>
	</defs>
	<rect id="paypal" rx="-0.500000" width="55.000000" height="31.000000" transform="translate(0.500000 0.500000)" fill="#FFFFFF" fill-opacity="0"/>
	<g clip-path="url(#clip182_6142)">
		<path id="Vector" d="M6 0.91L50 0.91C53.31 0.91 56 3.52 56 6.73L56 26.12C56 29.34 53.31 31.94 50 31.94L6 31.94C2.68 31.94 0 29.34 0 26.12L0 6.73C0 3.52 2.68 0.91 6 0.91Z" fill="#111827" fill-opacity="1.000000" fill-rule="evenodd"/>
		<mask id="mask182_6145" mask-type="alpha" maskUnits="userSpaceOnUse" x="0.000000" y="0.915527" width="56.000000" height="31.030273">
			<path id="Vector" d="M0 0.91L56 0.91L56 31.94L0 31.94L0 0.91Z" fill="#000000" fill-opacity="1.000000" fill-rule="evenodd"/>
		</mask>
		<g mask="url(#mask182_6145)">
			<mask id="mask182_6149" mask-type="alpha" maskUnits="userSpaceOnUse" x="4.199951" y="-6.345703" width="47.599976" height="46.157471">
				<path id="Vector" d="M4.19 -6.35L51.79 -6.35L51.79 39.81L4.19 39.81L4.19 -6.35Z" fill="#000000" fill-opacity="1.000000" fill-rule="evenodd"/>
			</mask>
			<g mask="url(#mask182_6149)">
				<path id="Vector" d="M12.73 12.52C12.57 12.21 12.32 11.96 12.02 11.77C11.7 11.59 11.32 11.45 10.89 11.37C10.45 11.3 9.95 11.26 9.36 11.26L6.65 11.26C6.37 11.26 6.1 11.47 6.03 11.74L4.21 19.43C4.14 19.69 4.32 19.91 4.6 19.91L5.9 19.91C6.18 19.91 6.46 19.7 6.52 19.43L6.96 17.56C7.02 17.3 7.3 17.09 7.59 17.09L7.96 17.09C9.54 17.08 10.77 16.77 11.65 16.14C12.54 15.51 12.98 14.68 12.98 13.65C12.97 13.2 12.9 12.82 12.73 12.52ZM9.93 15.03C9.54 15.31 8.99 15.45 8.29 15.45L7.97 15.45C7.69 15.45 7.52 15.23 7.58 14.97L7.97 13.33C8.02 13.07 8.31 12.85 8.59 12.86L9.01 12.85C9.51 12.85 9.89 12.94 10.14 13.1C10.39 13.26 10.52 13.51 10.51 13.85C10.52 14.36 10.32 14.75 9.93 15.03Z" fill="#FFFFFF" fill-opacity="1.000000" fill-rule="nonzero"/>
				<path id="Vector" d="M49.69 11.86L49.6 11.88L49.5 11.9L49.36 11.88L49.29 11.81L49.26 11.71L49.26 11.56L49.26 11L49.7 11L49.7 10.83L49.26 10.83L49.26 10.48L49.05 10.48L49.05 10.83L48.9 10.83L48.9 11L49.05 11L49.05 11.65L49.15 11.98L49.44 12.08L49.57 12.07L49.7 12.04L49.7 11.86L49.69 11.86Z" fill="#FFFFFF" fill-opacity="1.000000" fill-rule="nonzero"/>
				<path id="Vector" d="M51.7 10.92L51.39 10.79L51.16 10.84L50.93 10.99L50.79 10.85L50.57 10.8L50.36 10.84L50.16 10.96L50.16 10.83L49.95 10.83L49.95 12.05L50.16 12.05L50.16 11.14L50.34 11.03L50.51 10.99L50.66 11.02L50.73 11.09L50.76 11.2L50.77 11.35L50.77 12.05L50.98 12.05L50.98 11.27L50.98 11.21L50.97 11.15L51.15 11.04L51.33 10.99L51.47 11.02L51.54 11.09L51.57 11.21L51.58 11.35L51.58 12.05L51.8 12.05L51.8 11.26L51.7 10.92Z" fill="#FFFFFF" fill-opacity="1.000000" fill-rule="nonzero"/>
				<path id="Vector" d="M18.98 13.62C18.49 13.35 17.72 13.21 16.66 13.21C16.14 13.21 15.62 13.25 15.09 13.33C14.7 13.39 14.67 13.4 14.43 13.45C13.94 13.56 13.86 14.03 13.86 14.03L13.7 14.67C13.61 15.07 13.85 15.05 13.95 15.02C14.16 14.96 14.28 14.89 14.72 14.8C15.14 14.71 15.59 14.64 15.94 14.64C16.46 14.64 16.85 14.69 17.12 14.8C17.38 14.91 17.51 15.1 17.51 15.37L17.49 15.55L17.3 15.66C16.56 15.71 16.03 15.77 15.39 15.86C14.76 15.95 14.2 16.1 13.74 16.3C13.25 16.51 12.88 16.8 12.63 17.16C12.38 17.52 12.26 17.96 12.26 18.47C12.26 18.96 12.44 19.36 12.78 19.67C13.13 19.97 13.6 20.12 14.15 20.12C14.5 20.12 14.77 20.09 14.96 20.04L15.59 19.83L16.12 19.55L16.61 19.24L16.62 19.24L16.57 19.45L16.57 19.45L16.57 19.46C16.51 19.7 16.67 19.9 16.91 19.93L16.92 19.93L16.94 19.93L17.94 19.93L18.12 19.93L18.14 19.93C18.4 19.9 18.64 19.69 18.7 19.45L19.64 15.49L19.69 15.16L19.72 14.86C19.72 14.3 19.47 13.88 18.98 13.62ZM16.89 18.08L16.69 18.33L16.18 18.59C15.94 18.68 15.71 18.73 15.5 18.73C15.18 18.73 14.93 18.69 14.76 18.6L14.51 18.12C14.51 17.87 14.57 17.67 14.7 17.51L15.25 17.15C15.48 17.07 15.77 17.01 16.1 16.96C16.4 16.93 16.99 16.86 17.06 16.86L17.15 17.01C17.13 17.1 16.97 17.77 16.89 18.08Z" fill="#FFFFFF" fill-opacity="1.000000" fill-rule="nonzero"/>
				<path id="Vector" d="M42.53 13.62C42.03 13.35 41.26 13.22 40.21 13.22C39.69 13.22 39.17 13.26 38.64 13.34C38.25 13.39 38.22 13.41 37.98 13.46C37.48 13.56 37.41 14.04 37.41 14.04L37.25 14.67C37.16 15.07 37.39 15.06 37.5 15.02C37.72 14.96 37.84 14.9 38.27 14.8C38.69 14.71 39.14 14.64 39.49 14.64C40.01 14.64 40.4 14.7 40.67 14.81C40.93 14.92 41.06 15.11 41.06 15.38L41.04 15.55L40.85 15.67C40.11 15.71 39.58 15.78 38.94 15.87C38.31 15.95 37.75 16.1 37.29 16.31C36.8 16.52 36.43 16.8 36.18 17.16C35.93 17.52 35.8 17.96 35.8 18.47C35.8 18.96 35.98 19.36 36.34 19.67C36.69 19.97 37.15 20.12 37.7 20.12C38.05 20.12 38.32 20.1 38.51 20.05L39.14 19.84L39.67 19.56L40.16 19.24L40.17 19.25L40.12 19.45L40.12 19.46L40.12 19.46C40.06 19.7 40.22 19.91 40.47 19.93L40.47 19.93L40.49 19.93C40.65 19.93 41.22 19.93 41.49 19.93L41.67 19.93L41.69 19.93C41.95 19.9 42.19 19.7 42.24 19.45L43.19 15.49L43.24 15.17L43.27 14.86C43.27 14.3 43.02 13.89 42.53 13.62ZM40.44 18.08L40.23 18.34L39.73 18.6C39.49 18.69 39.26 18.74 39.05 18.74C38.72 18.74 38.48 18.69 38.31 18.6L38.06 18.13C38.06 17.87 38.12 17.67 38.24 17.52C38.37 17.37 38.56 17.24 38.8 17.15C39.03 17.08 39.32 17.02 39.65 16.97C39.95 16.93 40.53 16.87 40.61 16.87L40.7 17.02C40.69 17.1 40.52 17.78 40.44 18.08Z" fill="#FFFFFF" fill-opacity="1.000000" fill-rule="nonzero"/>
				<path id="Vector" d="M36.27 12.54C36.11 12.24 35.87 11.99 35.56 11.8C35.24 11.61 34.87 11.48 34.43 11.4C34 11.33 33.49 11.29 32.91 11.28L30.19 11.29C29.91 11.29 29.64 11.5 29.58 11.76L27.75 19.46C27.69 19.72 27.87 19.94 28.14 19.94L29.44 19.94C29.72 19.94 30 19.72 30.07 19.46L30.5 17.59C30.57 17.33 30.85 17.11 31.13 17.11L31.5 17.11C33.09 17.11 34.32 16.8 35.2 16.17C36.08 15.54 36.52 14.71 36.52 13.67C36.52 13.22 36.44 12.84 36.27 12.54ZM33.48 15.06C33.08 15.33 32.54 15.47 31.84 15.47L31.52 15.47C31.24 15.48 31.06 15.26 31.12 14.99L31.51 13.36C31.57 13.1 31.85 12.88 32.13 12.89L32.55 12.88C33.05 12.89 33.42 12.97 33.68 13.13C33.93 13.29 34.05 13.54 34.06 13.88C34.06 14.39 33.86 14.78 33.48 15.06Z" fill="#FFFFFF" fill-opacity="1.000000" fill-rule="nonzero"/>
				<path id="Vector" d="M47.39 11.83C47.45 11.56 47.28 11.35 47 11.35L45.84 11.35C45.6 11.35 45.39 11.52 45.28 11.73L45.22 11.83L45.16 12.08L43.53 19.24L43.48 19.46L43.48 19.46C43.43 19.7 43.58 19.87 43.81 19.91L43.83 19.93L45.03 19.93C45.27 19.93 45.49 19.76 45.59 19.55L45.66 19.45L47.39 11.83L47.39 11.83Z" fill="#FFFFFF" fill-opacity="1.000000" fill-rule="nonzero"/>
				<path id="Vector" d="M27.79 13.31C27.48 13.31 26.23 13.31 26.23 13.31C25.95 13.31 25.6 13.53 25.42 13.79C25.42 13.79 23.56 16.88 23.38 17.19L23.17 17.19L22.59 13.81C22.52 13.55 22.24 13.32 21.88 13.32L20.72 13.32C20.44 13.32 20.27 13.54 20.33 13.8C20.33 13.8 21.21 18.67 21.39 19.81C21.47 20.44 21.38 20.56 21.38 20.56L20.23 22.5C20.06 22.76 20.15 22.98 20.43 22.98L21.78 22.97C22.05 22.97 22.42 22.76 22.59 22.5L27.75 14.02C27.75 14.02 28.25 13.3 27.79 13.31Z" fill="#FFFFFF" fill-opacity="1.000000" fill-rule="nonzero"/>
			</g>
		</g>
	</g>
</svg>
