<svg width="20.000000" height="20.000000" viewBox="0 0 20 20" fill="none" xmlns="http://www.w3.org/2000/svg" xmlns:xlink="http://www.w3.org/1999/xlink">
	<desc>
			Created with Pixso.
	</desc>
	<defs>
		<clipPath id="clip22_1430">
			<rect id="svg" width="20.000000" height="20.000000" fill="white" fill-opacity="0"/>
		</clipPath>
	</defs>
	<g clip-path="url(#clip22_1430)">
		<path id="Vector" d="M19.97 10.05C19.97 15.54 15.52 19.98 10.04 19.98C4.57 19.98 0.11 15.54 0.11 10.05C0.11 4.58 4.57 0.13 10.04 0.13C15.52 0.13 19.97 4.58 19.97 10.05Z" fill="#5A99EC" fill-opacity="1.000000" fill-rule="nonzero"/>
		<path id="Vector" d="M4 14.6C4.2 14.62 4.41 14.63 4.63 14.63C5.86 14.63 7 14.22 7.91 13.5C6.75 13.48 5.77 12.72 5.44 11.67C5.59 11.7 5.76 11.72 5.94 11.72C6.17 11.72 6.4 11.69 6.63 11.63C5.42 11.38 4.51 10.32 4.51 9.04C4.51 9.03 4.51 9.02 4.51 9.01C4.86 9.2 5.27 9.32 5.7 9.33C5 8.86 4.54 8.05 4.54 7.14C4.54 6.66 4.67 6.22 4.89 5.82C6.19 7.41 8.13 8.47 10.32 8.57C10.28 8.38 10.26 8.18 10.26 7.97C10.26 6.51 11.44 5.33 12.89 5.33C13.66 5.33 14.33 5.66 14.82 6.17C15.42 6.05 15.98 5.83 16.5 5.52C16.29 6.14 15.88 6.66 15.33 6.98C15.86 6.92 16.38 6.79 16.85 6.57C16.5 7.1 16.04 7.57 15.52 7.94C15.53 8.05 15.54 8.17 15.54 8.27C15.54 11.76 12.89 15.77 8.04 15.77C6.55 15.77 5.16 15.35 4 14.6Z" fill="#FFFFFF" fill-opacity="1.000000" fill-rule="nonzero"/>
	</g>
</svg>
