<svg width="56.000000" height="32.000000" viewBox="0 0 56 32" fill="none" xmlns="http://www.w3.org/2000/svg" xmlns:xlink="http://www.w3.org/1999/xlink">
	<desc>
			Created with Pixso.
	</desc>
	<defs>
		<clipPath id="clip182_6652">
			<rect id="verisign" rx="-0.500000" width="55.000000" height="31.000000" transform="translate(0.500000 0.500000)" fill="white" fill-opacity="0"/>
		</clipPath>
	</defs>
	<rect id="verisign" rx="-0.500000" width="55.000000" height="31.000000" transform="translate(0.500000 0.500000)" fill="#FFFFFF" fill-opacity="0"/>
	<g clip-path="url(#clip182_6652)">
		<path id="Vector" d="M6 0.91L50 0.91C53.31 0.91 56 3.52 56 6.73L56 26.12C56 29.34 53.31 31.94 50 31.94L6 31.94C2.68 31.94 0 29.34 0 26.12L0 6.73C0 3.52 2.68 0.91 6 0.91Z" fill="#111827" fill-opacity="1.000000" fill-rule="evenodd"/>
		<mask id="mask182_6655" mask-type="alpha" maskUnits="userSpaceOnUse" x="0.000000" y="0.915527" width="56.000000" height="31.030273">
			<path id="Vector" d="M0 0.91L56 0.91L56 31.94L0 31.94L0 0.91Z" fill="#000000" fill-opacity="1.000000" fill-rule="evenodd"/>
		</mask>
		<g mask="url(#mask182_6655)">
			<mask id="mask182_6659" mask-type="alpha" maskUnits="userSpaceOnUse" x="5.599976" y="-5.290527" width="44.800049" height="43.442383">
				<path id="Vector" d="M5.59 -5.3L50.4 -5.3L50.4 38.15L5.59 38.15L5.59 -5.3Z" fill="#000000" fill-opacity="1.000000" fill-rule="evenodd"/>
			</mask>
			<g mask="url(#mask182_6659)">
				<path id="Vector" d="M19.26 8.14L19.26 8.84L19.26 8.84L20 8.84L20 8.14L19.26 8.14Z" fill="#FFFFFF" fill-opacity="1.000000" fill-rule="nonzero"/>
				<path id="Vector" d="M20.73 7.43L20 7.43L20 8.14L20.73 8.14L20.73 7.43Z" fill="#FFFFFF" fill-opacity="1.000000" fill-rule="nonzero"/>
				<path id="Vector" d="M18.61 10.25L18.61 9.55L19.26 9.55L19.26 8.84L17.93 8.84L17.93 9.55L17.26 9.55L17.26 10.92L17.93 10.92L17.93 10.25L18.61 10.25L18.61 10.92L17.93 10.92L17.93 11.59L17.26 11.59L17.26 12.26L16.56 12.26L16.56 11.59L17.26 11.59L17.26 10.92L16.56 10.92L16.56 10.29L15.87 10.29L15.87 10.92L16.56 10.92L16.56 11.59L15.41 11.59L15.41 12.07L14.79 12.07L14.79 12.67L15.48 12.67L15.48 13.33L14.79 13.33L14.79 12.67L14.06 12.67L14.06 13.71L13.37 13.71L13.37 14.38L12.91 14.38L12.91 15.05L12.41 15.05C11.84 15.86 10.42 18.41 9.99 19.45C8.44 17.36 7.24 16.53 6.29 16.24C5.79 16.09 5.16 16.63 6.02 17.47C7.96 19.55 8.58 21.27 9.17 22.64C9.48 23.37 10.89 23.48 11.17 22.74C11.77 21.18 12.64 19.44 13.66 18L13.66 17.25L14.22 17.25L14.22 16.58L14.79 16.58L14.79 15.8L15.49 15.8L15.49 15.05L14.79 15.05L14.79 14.38L15.49 14.38L15.49 15.05L16.17 15.05L16.17 14.38L16.72 14.38L16.72 13.56L17.33 13.56L17.33 13L17.93 13L17.93 11.59L18.61 11.59L18.61 10.92L19.38 10.92L19.38 10.25L18.61 10.25Z" fill="#FFFFFF" fill-opacity="1.000000" fill-rule="nonzero"/>
				<path id="Vector" d="M34.5 14.06C34.12 14.06 33.82 14.35 33.82 14.71C33.82 15.08 34.15 15.35 34.52 15.35C34.87 15.35 35.16 15.06 35.16 14.71C35.16 14.35 34.87 14.06 34.5 14.06Z" fill="#FFFFFF" fill-opacity="1.000000" fill-rule="nonzero"/>
				<path id="Vector" d="M25.4 14.06C25.03 14.06 24.73 14.35 24.73 14.71C24.73 15.08 25.06 15.35 25.43 15.35C25.78 15.35 26.06 15.06 26.06 14.71C26.06 14.35 25.78 14.06 25.4 14.06Z" fill="#FFFFFF" fill-opacity="1.000000" fill-rule="nonzero"/>
				<path id="Vector" d="M20.73 8.85L20 8.85L20 9.56L20.73 9.56L20.73 8.85Z" fill="#FFFFFF" fill-opacity="1.000000" fill-rule="nonzero"/>
				<path id="Vector" d="M48.03 20.73L48.03 18.52C48.03 17.38 47.36 16.86 46.17 16.86C45.3 16.86 44.62 17.21 44.19 17.96L44.16 17.96L44 16.86C43.39 16.97 42.93 17.16 42.29 17.23L42.29 17.47C42.68 17.47 43.02 17.42 43.12 17.86C43.18 18.14 43.18 18.98 43.18 19.32L43.18 20.8C43.18 21.6 43.24 21.89 42.31 21.95L42.31 22.19C42.79 22.18 43.27 22.15 43.76 22.14C44.2 22.15 44.66 22.18 45.11 22.19L45.11 21.95C44.13 21.89 44.24 21.53 44.24 20.73L44.24 18.86C44.24 17.98 44.86 17.24 45.83 17.24C47.02 17.24 46.98 18.43 46.98 19.26L46.98 20.8C46.98 21.6 47.04 21.89 46.1 21.95L46.1 22.19C46.59 22.18 47.06 22.15 47.55 22.14C48 22.15 48.46 22.18 48.91 22.19L48.91 21.95C47.93 21.89 48.03 21.53 48.03 20.73Z" fill="#FFFFFF" fill-opacity="1.000000" fill-rule="nonzero"/>
				<path id="Vector" d="M41.34 16.9C40.88 16.9 40.46 17.15 40.13 17.4C39.7 17.03 39.12 16.86 38.54 16.86C37.32 16.86 36.21 17.55 36.21 18.83C36.21 19.6 36.81 20.26 37.53 20.49L37.53 20.52C37 20.59 36.44 20.98 36.44 21.56C36.44 22.64 37.57 22.62 38.4 22.64C39.25 22.69 40.62 22.63 40.62 23.81C40.62 24.79 39.68 25.15 38.8 25.15C37.93 25.15 36.83 24.94 36.83 23.89C36.83 23.52 37.06 23.11 37.47 23.04C37.32 22.9 37.16 22.82 36.95 22.82C36.41 22.82 36.03 23.33 36.03 23.82C36.03 25.08 37.61 25.43 38.64 25.43C40 25.43 41.46 24.93 41.46 23.4C41.46 21.78 40.13 21.73 38.85 21.64L38.02 21.6C37.75 21.58 37.06 21.63 37.06 21.2C37.06 20.71 38.02 20.71 38.4 20.7C39.68 20.64 40.78 20.23 40.78 18.8C40.78 18.37 40.63 17.94 40.34 17.62C40.47 17.51 40.67 17.39 40.85 17.39C41.23 17.39 41.27 17.81 41.65 17.81C41.9 17.81 42.07 17.63 42.07 17.41C42.07 17.04 41.65 16.89 41.34 16.9ZM38.46 20.42C37.56 20.42 37.26 19.53 37.26 18.8C37.26 18.04 37.52 17.14 38.48 17.14C39.43 17.14 39.72 18.03 39.72 18.8C39.72 19.58 39.42 20.42 38.46 20.42Z" fill="#FFFFFF" fill-opacity="1.000000" fill-rule="nonzero"/>
				<path id="Vector" d="M49.65 17.77C49.79 17.75 49.91 17.67 49.91 17.49C49.91 17.32 49.81 17.22 49.58 17.22L49.18 17.22L49.18 18.22L49.31 18.22L49.31 17.77L49.52 17.77L49.81 18.22L49.96 18.22L49.65 17.77ZM49.48 17.67L49.31 17.67L49.31 17.33L49.54 17.33C49.67 17.33 49.78 17.36 49.78 17.5C49.78 17.67 49.63 17.67 49.48 17.67Z" fill="#FFFFFF" fill-opacity="1.000000" fill-rule="nonzero"/>
				<path id="Vector" d="M49.51 16.86C49.01 16.86 48.62 17.24 48.62 17.72C48.62 18.2 49.01 18.58 49.51 18.58C50.01 18.58 50.39 18.2 50.39 17.72C50.39 17.24 50.01 16.86 49.51 16.86ZM49.51 18.46C49.08 18.46 48.75 18.13 48.75 17.72C48.75 17.31 49.08 16.98 49.51 16.98C49.93 16.98 50.25 17.31 50.25 17.72C50.25 18.13 49.93 18.46 49.51 18.46Z" fill="#FFFFFF" fill-opacity="1.000000" fill-rule="nonzero"/>
				<path id="Vector" d="M22.89 16.86C22.03 16.86 21.41 17.34 21.09 18.08L21.06 18.08C21.08 17.64 21.03 17.21 20.92 16.86C20.37 16.98 19.82 17.19 19.23 17.23L19.23 17.47C19.63 17.47 19.94 17.42 20.05 17.86C20.14 18.13 20.13 18.99 20.13 19.32L20.13 20.8C20.13 21.6 20.19 21.89 19.26 21.95L19.26 22.19C19.75 22.17 20.22 22.15 20.7 22.14C21.17 22.15 21.66 22.18 22.13 22.19L22.13 21.95C21.09 21.9 21.19 21.61 21.19 20.73L21.19 19.54C21.19 18.98 21.19 18.39 21.47 17.89C21.66 17.59 22.07 17.29 22.44 17.29C22.93 17.29 22.82 17.92 23.34 17.92C23.58 17.92 23.77 17.71 23.77 17.48C23.77 17.04 23.28 16.86 22.89 16.86Z" fill="#FFFFFF" fill-opacity="1.000000" fill-rule="nonzero"/>
				<path id="Vector" d="M18.71 18.93C18.84 18.93 19.02 18.98 19.02 18.83C19.02 17.52 17.87 16.86 16.65 16.86C15.03 16.86 13.85 18.22 13.85 19.73C13.85 21.27 15.12 22.32 16.66 22.32C17.6 22.32 18.29 22 18.88 21.3L18.61 21.05C18.24 21.53 17.68 21.94 17.05 21.94C15.71 21.94 15.09 20.66 15.09 19.51L15.14 18.93L18.71 18.93ZM16.66 17.14C17.44 17.14 17.87 17.62 17.87 18.37C17.87 18.67 17.46 18.61 17.26 18.61L15.21 18.61C15.35 17.82 15.73 17.14 16.66 17.14Z" fill="#FFFFFF" fill-opacity="1.000000" fill-rule="nonzero"/>
				<path id="Vector" d="M35.16 20.73L35.16 16.86L33.2 17.23L33.2 17.47C33.45 17.46 33.97 17.44 34.05 17.74C34.11 17.92 34.11 18.85 34.11 19.08L34.11 20.8C34.1 21.6 34.17 21.89 33.25 21.95L33.25 22.19C33.74 22.18 34.22 22.15 34.7 22.14C35.15 22.15 35.61 22.18 36.04 22.19L36.04 21.95C35.06 21.89 35.19 21.53 35.16 20.73Z" fill="#FFFFFF" fill-opacity="1.000000" fill-rule="nonzero"/>
				<path id="Vector" d="M26.07 20.73L26.07 16.86L24.11 17.23L24.11 17.47C24.36 17.46 24.88 17.44 24.97 17.74C25.02 17.92 25.02 18.85 25.02 19.08L25.02 20.8C25 21.6 25.08 21.89 24.16 21.95L24.16 22.19C24.64 22.18 25.13 22.15 25.61 22.14C26.06 22.15 26.52 22.18 26.95 22.19L26.95 21.95C25.97 21.89 26.1 21.53 26.07 20.73Z" fill="#FFFFFF" fill-opacity="1.000000" fill-rule="nonzero"/>
				<path id="Vector" d="M30.37 17.26C29.6 16.94 28.72 16.62 28.72 15.66C28.72 14.88 29.37 14.38 30.17 14.38C31.38 14.38 31.96 15.29 32.24 16.29L32.53 16.29L32.47 14.2L32.33 14.2L32.05 14.67C31.49 14.29 30.85 14.06 30.17 14.06C28.81 14.06 27.71 14.85 27.71 16.23C27.71 17.61 28.91 18.18 30.04 18.61C30.95 18.96 31.94 19.39 31.94 20.49C31.94 21.46 31.13 22 30.16 22C28.73 22 28.05 20.97 27.81 19.75L27.52 19.75L27.52 22.11L27.65 22.11L27.95 21.6C28.63 22.08 29.29 22.32 30.13 22.32C31.58 22.32 33.11 21.56 33.11 19.98C33.11 18.4 31.66 17.77 30.37 17.26Z" fill="#FFFFFF" fill-opacity="1.000000" fill-rule="nonzero"/>
			</g>
		</g>
	</g>
</svg>
