<svg width="19.986969" height="19.840088" viewBox="0 0 19.987 19.8401" fill="none" xmlns="http://www.w3.org/2000/svg" xmlns:xlink="http://www.w3.org/1999/xlink">
	<desc>
			Created with Pixso.
	</desc>
	<defs>
		<clipPath id="clip22_1414">
			<rect id="svg" width="19.986963" height="19.840000" fill="white" fill-opacity="0"/>
		</clipPath>
	</defs>
	<g clip-path="url(#clip22_1414)">
		<path id="Vector" d="M19.91 9.91C19.91 15.38 15.47 19.84 9.99 19.84C4.51 19.84 0.07 15.38 0.07 9.91C0.07 4.43 4.51 0 9.99 0C15.47 0 19.91 4.43 19.91 9.91Z" fill="#DA0000" fill-opacity="1.000000" fill-rule="nonzero"/>
		<path id="Vector" d="M16.6 9.91C16.6 11.35 16.51 12.4 16.32 13.09C16.18 13.66 15.72 14.1 15.16 14.27C14.47 14.45 12.74 14.54 9.99 14.54C7.24 14.54 5.51 14.45 4.82 14.27C4.26 14.1 3.8 13.66 3.65 13.09C3.47 12.4 3.38 11.35 3.38 9.91C3.38 8.47 3.47 7.41 3.65 6.73C3.8 6.15 4.26 5.71 4.82 5.55C5.51 5.37 7.24 5.29 9.99 5.29C12.74 5.29 14.47 5.37 15.16 5.55C15.72 5.71 16.18 6.15 16.32 6.73C16.51 7.41 16.6 8.47 16.6 9.91ZM12.1 9.91L8.67 7.93L8.67 11.9L12.1 9.91Z" fill="#FFFFFF" fill-opacity="1.000000" fill-rule="evenodd"/>
	</g>
</svg>
